<?xml version="1.0" encoding="UTF-8" standalone="no"?>
<!DOCTYPE svg PUBLIC "-//W3C//DTD SVG 1.0//EN" "http://www.w3.org/TR/2001/REC-SVG-20010904/DTD/svg10.dtd">
<!-- Generated by Microsoft Visio 11.0, SVG Export, v1.0 Presure.svg Presure -->
<svg xmlns="http://www.w3.org/2000/svg" xmlns:v="http://schemas.microsoft.com/visio/2003/SVGExtensions/" width="8.26772in"
		height="11.6929in" viewBox="0 0 595.276 841.89" xml:space="preserve" color-interpolation-filters="sRGB" class="st4">
	<v:documentProperties v:langID="1033" v:viewMarkup="false"/>

	<style type="text/css">
	<![CDATA[
		.st1 {fill:#ffffff;stroke:#ff0000;stroke-linecap:round;stroke-linejoin:round;stroke-width:20}
		.st2 {fill:none}
		.st3 {stroke:#000000;stroke-linecap:round;stroke-linejoin:round;stroke-width:30}
		.st4 {fill:none;fill-rule:evenodd;font-size:12;overflow:visible;stroke-linecap:square;stroke-miterlimit:3}
	]]>
	</style>

	<g v:mID="8" v:index="6" v:groupContext="foregroundPage">
		<title>Presure</title>
		<v:pageProperties v:drawingScale="0.0393701" v:pageScale="0.0393701" v:drawingUnits="24" v:shadowOffsetX="9"
				v:shadowOffsetY="-9"/>
		<g id="group1-1" transform="translate(103.465,-224.784)" v:mID="1" v:groupContext="group">
			<title>Sheet.1</title>
			<g id="group2-2" v:mID="2" v:groupContext="group">
				<title>Page-5</title>
				<g id="shape3-3" v:mID="3" v:groupContext="shape">
					<title>Sheet.3</title>
					<ellipse cx="194.173" cy="645.414" rx="194.173" ry="196.476" class="st1"/>
				</g>
				<g id="group4-5" transform="translate(-15.7984,-89.375) rotate(-10)" v:mID="4" v:groupContext="group">
					<title>Sheet.4</title>
					<g id="shape5-6" v:mID="5" v:groupContext="shape" transform="translate(857.644,964.634) rotate(111.801)">
						<title>Sheet.5</title>
						<path d="M0 841.89 L204.55 841.89 L0 841.89 Z" class="st2"/>
						<path d="M0 841.89 L204.55 841.89" class="st3"/>
					</g>
					<g id="shape6-9" v:mID="6" v:groupContext="shape" transform="translate(22.737,-56.8473)">
						<title>Sheet.6</title>
						<path d="M53.23 708.81 A92.9763 87.8739 180 0 1 146.21 796.68 A146.208 45.2047 180 0 1 -0 841.89 L53.23 708.81
									 Z" class="st2"/>
						<path d="M53.23 708.81 A92.9763 87.8739 180 0 1 146.21 796.68 A146.208 45.2047 180 0 1 -0 841.89"
								class="st3"/>
					</g>
				</g>
			</g>
		</g>
	</g>
</svg>
