<svg width="64" height="64" viewBox="0 0 64 64" fill="none" xmlns="http://www.w3.org/2000/svg">
<rect x="0.5" y="0.5" width="63" height="63" fill="#C4C4C4" stroke="black"/>
<path d="M20.0441 49.5286V33.4185L29.5176 41.4736L38.9912 33.4185V49.5286L29.5176 41.4736L20.0441 49.5286Z" fill="#3300FF"/>
<path d="M20.0441 33.4185V49.5286L38.9912 33.4185V49.5286L20.0441 33.4185Z" stroke="black" stroke-width="0.5"/>
<path d="M29.6696 9V41.3216H55V9H29.6696Z" stroke="black" stroke-width="0.5"/>
<path d="M9 41.3216H17.7137" stroke="black" stroke-width="0.5"/>
<path d="M17.6123 33.5198V49.326" stroke="black" stroke-width="0.5"/>
<path d="M41.5242 33.1145V49.326" stroke="black" stroke-width="0.5"/>
<mask id="path-8-inside-1_90_41" fill="white">
<path fill-rule="evenodd" clip-rule="evenodd" d="M39.9031 25.1101H20.0441C20.0441 19.6262 24.4897 15.1806 29.9736 15.1806C35.4575 15.1806 39.9031 19.6262 39.9031 25.1101Z"/>
</mask>
<path fill-rule="evenodd" clip-rule="evenodd" d="M39.9031 25.1101H20.0441C20.0441 19.6262 24.4897 15.1806 29.9736 15.1806C35.4575 15.1806 39.9031 19.6262 39.9031 25.1101Z" fill="#3300FF"/>
<path d="M20.0441 25.1101H19.5441V25.6101H20.0441V25.1101ZM39.9031 25.1101V25.6101H40.4031V25.1101H39.9031ZM20.0441 25.6101H39.9031V24.6101H20.0441V25.6101ZM20.5441 25.1101C20.5441 19.9024 24.7658 15.6806 29.9736 15.6806V14.6806C24.2135 14.6806 19.5441 19.3501 19.5441 25.1101H20.5441ZM29.9736 15.6806C35.1814 15.6806 39.4031 19.9024 39.4031 25.1101H40.4031C40.4031 19.3501 35.7336 14.6806 29.9736 14.6806V15.6806Z" fill="black" mask="url(#path-8-inside-1_90_41)"/>
</svg>
