<?xml version="1.0" encoding="UTF-8" standalone="no"?>
<!DOCTYPE svg PUBLIC "-//W3C//DTD SVG 1.0//EN" "http://www.w3.org/TR/2001/REC-SVG-20010904/DTD/svg10.dtd">
<!-- Generated by Microsoft Visio 11.0, SVG Export, v1.0 Ventil.svg Page-17 -->
<svg xmlns="http://www.w3.org/2000/svg" xmlns:v="http://schemas.microsoft.com/visio/2003/SVGExtensions/" width="8.26772in"
		height="11.6929in" viewBox="0 0 595.276 841.89" xml:space="preserve" color-interpolation-filters="sRGB" class="st5">
	<v:documentProperties v:langID="1033" v:viewMarkup="false"/>

	<style type="text/css">
	<![CDATA[
		.st1 {fill:#3366ff;stroke:#000000;stroke-linecap:round;stroke-linejoin:round;stroke-width:0.24}
		.st2 {stroke:#000000;stroke-linecap:round;stroke-linejoin:round;stroke-width:0.24}
		.st3 {fill:#e8eef7;stroke:#000000;stroke-linecap:round;stroke-linejoin:round;stroke-width:0.24}
		.st4 {stroke:#000000;stroke-linecap:round;stroke-linejoin:round;stroke-width:3.12}
		.st5 {fill:none;fill-rule:evenodd;font-size:12;overflow:visible;stroke-linecap:square;stroke-miterlimit:3}
	]]>
	</style>

	<g v:mID="19" v:index="17" v:groupContext="foregroundPage">
		<title>Page-17</title>
		<v:pageProperties v:drawingScale="0.0393701" v:pageScale="0.0393701" v:drawingUnits="24" v:shadowOffsetX="9"
				v:shadowOffsetY="-9"/>
		<g id="group6-1" transform="translate(113.376,-51.0236)" v:mID="6" v:groupContext="group">
			<title>Sheet.6</title>
			<g id="shape1-2" v:mID="1" v:groupContext="shape" transform="translate(0,-283.465)">
				<title>Sheet.1</title>
				<path d="M378.43 530.08 A189.544 60.8756 -180 0 0 0.01 535.75 A306.142 194.173 -90 0 0 194.18 841.89 A311.811 184.252
							 -90 0 0 378.43 530.08 Z" class="st1"/>
			</g>
			<g id="shape2-4" v:mID="2" v:groupContext="shape" transform="translate(0.950988,-566.929)">
				<title>Sheet.2</title>
				<path d="M377.43 812.16 A174.275 29.7344 0 0 1 203.15 841.89 A203.153 28.8101 0 0 1 0 813.08" class="st2"/>
			</g>
			<g id="shape5-7" v:mID="5" v:groupContext="shape" transform="translate(303.317,-748.346)">
				<title>Sheet.5</title>
				<path d="M0 841.89 L2.83 841.89 L0 841.89 Z" class="st3"/>
			</g>
			<g id="shape3-9" v:mID="3" v:groupContext="shape" transform="translate(136.492,-647.717)">
				<title>Sheet.3</title>
				<path d="M112.7 841.86 A90.473 60.6545 -88.72 0 0 54.08 750.06 A90.6767 54.0783 -90 0 0 -0 840.74 A50.9403 1.96132
							 0 0 1 50.94 838.77 A62.0085 3.11571 0 0 1 112.95 841.89" class="st4"/>
			</g>
			<g id="shape4-12" v:mID="4" v:groupContext="shape" transform="translate(187.096,0)">
				<title>Sheet.4</title>
				<rect x="0" y="557.008" width="19.8425" height="284.882" class="st1"/>
			</g>
		</g>
	</g>
</svg>
