<svg width="58" height="38" viewBox="0 0 58 38" fill="none" xmlns="http://www.w3.org/2000/svg">
<path d="M0 8.16422H57.3957" stroke="black" stroke-width="0.5"/>
<path d="M28.6979 8.25491V38" stroke="black" stroke-width="0.5"/>
<path d="M4.38806 15.4191V1L12.5937 8.20956L20.7994 1V15.4191L12.5937 8.20956L4.38806 15.4191Z" fill="#EB5757"/>
<path d="M4.38806 1V15.4191L20.7994 1V15.4191L4.38806 1Z" stroke="black" stroke-width="0.5"/>
<path d="M37.0352 15.4191V1L45.2408 8.20956L53.4465 1V15.4191L45.2408 8.20956L37.0352 15.4191Z" fill="#EB5757"/>
<path d="M37.0352 1V15.4191L53.4465 1V15.4191L37.0352 1Z" stroke="black" stroke-width="0.5"/>
<path d="M35.7186 35.0073L21.7646 35.0073L28.7416 26.5282L21.7646 18.049L35.7186 18.049L28.7416 26.5282L35.7186 35.0073Z" fill="#EB5757"/>
<path d="M21.7646 35.0073L35.7186 35.0073L21.7646 18.049L35.7186 18.049L21.7646 35.0073Z" stroke="black" stroke-width="0.5"/>
</svg>
